<svg xmlns="http://www.w3.org/2000/svg" id="Layer_2" viewBox="0 0 400.69 179.37"><defs><style>.cls-1{fill:#0d2b47;}</style></defs><g id="Layer_1-2"><g><g><path class="cls-1" d="M50.01,122.32c-5.58-2.55-10-6.02-13.25-10.41-3.25-4.39-4.99-9.29-5.2-14.72h19.19c.33,3.8,2.14,6.97,5.45,9.51,3.31,2.55,7.45,3.82,12.44,3.82s9.24-1,12.11-3.01c2.87-2,4.31-4.58,4.31-7.72,0-3.36-1.6-5.85-4.8-7.48-3.2-1.63-8.27-3.41-15.2-5.37-6.72-1.84-12.2-3.63-16.42-5.37-4.23-1.73-7.89-4.39-10.98-7.97-3.09-3.58-4.63-8.29-4.63-14.15,0-4.77,1.41-9.13,4.23-13.09,2.82-3.95,6.85-7.07,12.11-9.35,5.26-2.28,11.3-3.41,18.13-3.41,10.19,0,18.4,2.58,24.64,7.72,6.23,5.15,9.57,12.17,10,21.06h-18.54c-.33-4.01-1.95-7.21-4.88-9.59-2.93-2.38-6.89-3.58-11.87-3.58s-8.62,.92-11.22,2.76c-2.6,1.85-3.9,4.28-3.9,7.32,0,2.39,.87,4.39,2.6,6.02,1.73,1.63,3.85,2.9,6.34,3.82,2.49,.92,6.18,2.09,11.06,3.5,6.51,1.74,11.84,3.5,16.02,5.29,4.17,1.79,7.78,4.42,10.81,7.89,3.03,3.47,4.61,8.08,4.72,13.82,0,5.1-1.41,9.65-4.23,13.66-2.82,4.01-6.8,7.16-11.95,9.43-5.15,2.28-11.2,3.42-18.13,3.42s-13.36-1.28-18.94-3.82Z"/><path class="cls-1" d="M177.34,38c5.58,2.93,9.95,7.27,13.09,13.01,3.14,5.75,4.72,12.68,4.72,20.82v52.85h-18.38v-50.09c0-8.02-2.01-14.17-6.02-18.46-4.01-4.28-9.49-6.42-16.42-6.42s-12.44,2.14-16.51,6.42c-4.07,4.28-6.1,10.44-6.1,18.46v50.09h-18.54V35.07h18.54v10.24c3.03-3.68,6.91-6.56,11.63-8.62,4.72-2.06,9.73-3.09,15.04-3.09,7.05,0,13.36,1.46,18.94,4.39Z"/><path class="cls-1" d="M208.07,55.56c3.74-6.94,8.84-12.33,15.29-16.18,6.45-3.85,13.58-5.77,21.38-5.77,7.05,0,13.2,1.38,18.46,4.15,5.26,2.76,9.46,6.21,12.6,10.33v-13.01h18.7V124.68h-18.7v-13.34c-3.15,4.23-7.43,7.75-12.85,10.57-5.42,2.82-11.6,4.23-18.54,4.23-7.7,0-14.75-1.98-21.14-5.94-6.4-3.96-11.46-9.49-15.21-16.59-3.74-7.1-5.61-15.15-5.61-24.15s1.87-16.97,5.61-23.9Zm63.91,8.13c-2.55-4.55-5.88-8.02-10-10.41-4.12-2.38-8.57-3.58-13.33-3.58s-9.22,1.17-13.33,3.5c-4.12,2.33-7.46,5.75-10,10.25-2.55,4.5-3.82,9.84-3.82,16.02s1.27,11.6,3.82,16.26c2.55,4.66,5.91,8.21,10.08,10.65,4.17,2.44,8.59,3.66,13.25,3.66s9.21-1.19,13.33-3.58c4.12-2.38,7.45-5.88,10-10.49,2.55-4.61,3.82-10,3.82-16.18s-1.28-11.55-3.82-16.1Z"/><path class="cls-1" d="M340.2,37.84c5.42-2.82,11.55-4.23,18.38-4.23,7.81,0,14.93,1.93,21.38,5.77,6.45,3.85,11.52,9.24,15.21,16.18,3.68,6.94,5.53,14.91,5.53,23.9s-1.85,17.05-5.53,24.15c-3.69,7.1-8.76,12.63-15.21,16.59-6.45,3.96-13.58,5.94-21.38,5.94-6.83,0-12.9-1.38-18.21-4.15-5.31-2.76-9.65-6.21-13.01-10.33v55.62h-18.54V35.07h18.54v13.17c3.14-4.12,7.42-7.59,12.85-10.41Zm37.81,25.61c-2.55-4.5-5.91-7.91-10.08-10.25-4.17-2.33-8.65-3.5-13.42-3.5s-9.08,1.19-13.25,3.58c-4.17,2.39-7.54,5.85-10.08,10.41-2.55,4.55-3.82,9.92-3.82,16.1s1.27,11.57,3.82,16.18c2.55,4.61,5.91,8.1,10.08,10.49,4.17,2.39,8.59,3.58,13.25,3.58s9.24-1.22,13.42-3.66c4.17-2.44,7.53-5.99,10.08-10.65,2.55-4.66,3.82-10.08,3.82-16.26s-1.28-11.52-3.82-16.02Z"/></g><g><circle class="cls-1" cx="34.36" cy="27.5" r="5.95"/><path class="cls-1" d="M11.59,67.21c-1.97-.1-3.81-1.27-4.66-3.19-1.21-2.72,.02-5.9,2.74-7.11l7.07-3.14c2.72-1.2,5.9,.02,7.11,2.74,1.21,2.72-.02,5.9-2.74,7.11l-7.07,3.14c-.8,.35-1.63,.5-2.45,.46Z"/><path class="cls-1" d="M51.76,26.66c-.24-.01-.48-.04-.71-.08-2.93-.54-4.86-3.35-4.33-6.27l2.75-14.99c.54-2.93,3.35-4.86,6.27-4.33,2.93,.54,4.86,3.35,4.33,6.27l-2.75,14.99c-.49,2.69-2.9,4.54-5.56,4.41Z"/><path class="cls-1" d="M22.83,46.63c-.58-.03-1.17-.15-1.74-.38L3.38,39.15c-2.76-1.11-4.1-4.24-3-7,1.11-2.76,4.24-4.1,7-3l17.71,7.1c2.76,1.11,4.1,4.24,3,7-.88,2.19-3.03,3.49-5.27,3.38Z"/><path class="cls-1" d="M24.16,19.76c-1.6-.08-3.15-.87-4.14-2.28l-6.33-8.99c-1.71-2.43-1.13-5.79,1.31-7.51,2.43-1.71,5.79-1.13,7.51,1.31l6.33,8.99c1.71,2.43,1.13,5.79-1.31,7.51-1.02,.72-2.2,1.03-3.36,.98Z"/></g><g><path class="cls-1" d="M77.74,156.13h-5.04v22.8h-9.37v-22.8h-3.4v-7.78h3.4v-.88c0-3.76,1.08-6.62,3.23-8.58,2.16-1.95,5.32-2.93,9.48-2.93,.69,0,1.21,.02,1.53,.05v7.95c-1.79-.11-3.05,.15-3.78,.77-.73,.62-1.1,1.74-1.1,3.34v.27h5.04v7.78Z"/><path class="cls-1" d="M86.76,143.72c-1.04-.97-1.56-2.16-1.56-3.59s.52-2.68,1.56-3.64c1.04-.97,2.38-1.45,4.03-1.45s2.93,.48,3.97,1.45c1.04,.97,1.56,2.18,1.56,3.64s-.52,2.62-1.56,3.59c-1.04,.97-2.37,1.45-3.97,1.45s-2.99-.48-4.03-1.45Zm8.69,4.63v30.58h-9.37v-30.58h9.37Z"/><path class="cls-1" d="M133.4,151.5c2.14,2.32,3.21,5.51,3.21,9.57v17.87h-9.32v-16.61c0-2.05-.53-3.63-1.59-4.77-1.06-1.13-2.49-1.7-4.28-1.7s-3.22,.57-4.28,1.7c-1.06,1.13-1.59,2.72-1.59,4.77v16.61h-9.37v-30.58h9.37v4.06c.95-1.35,2.23-2.42,3.84-3.21,1.61-.78,3.42-1.18,5.43-1.18,3.58,0,6.44,1.16,8.58,3.48Z"/><path class="cls-1" d="M146.99,155.31c1.19-2.38,2.8-4.2,4.85-5.48,2.05-1.28,4.33-1.92,6.85-1.92,2.16,0,4.05,.44,5.67,1.32,1.63,.88,2.88,2.03,3.75,3.45v-4.33h9.37v30.58h-9.37v-4.33c-.91,1.43-2.18,2.58-3.81,3.45-1.63,.88-3.52,1.32-5.67,1.32-2.48,0-4.75-.65-6.8-1.95-2.05-1.3-3.66-3.14-4.85-5.54-1.19-2.39-1.78-5.16-1.78-8.3s.59-5.9,1.78-8.28Zm19.18,2.79c-1.3-1.35-2.88-2.03-4.74-2.03s-3.44,.67-4.74,2c-1.3,1.33-1.95,3.17-1.95,5.51s.65,4.19,1.95,5.56c1.3,1.37,2.88,2.06,4.74,2.06s3.44-.68,4.74-2.03c1.3-1.35,1.95-3.2,1.95-5.54s-.65-4.18-1.95-5.54Z"/><path class="cls-1" d="M215.45,151.5c2.14,2.32,3.21,5.51,3.21,9.57v17.87h-9.32v-16.61c0-2.05-.53-3.63-1.59-4.77-1.06-1.13-2.49-1.7-4.28-1.7s-3.22,.57-4.28,1.7c-1.06,1.13-1.59,2.72-1.59,4.77v16.61h-9.37v-30.58h9.37v4.06c.95-1.35,2.23-2.42,3.84-3.21,1.61-.78,3.42-1.18,5.43-1.18,3.58,0,6.44,1.16,8.58,3.48Z"/><path class="cls-1" d="M229.21,155.31c1.3-2.38,3.11-4.2,5.43-5.48,2.32-1.28,4.98-1.92,7.97-1.92,3.84,0,7.04,1.01,9.62,3.01,2.58,2.01,4.27,4.84,5.07,8.5h-9.98c-.84-2.34-2.47-3.51-4.88-3.51-1.72,0-3.09,.67-4.11,2-1.02,1.33-1.53,3.24-1.53,5.73s.51,4.39,1.53,5.73c1.02,1.33,2.39,2,4.11,2,2.41,0,4.04-1.17,4.88-3.51h9.98c-.8,3.58-2.5,6.39-5.1,8.44-2.6,2.05-5.79,3.07-9.59,3.07-3,0-5.66-.64-7.97-1.92-2.32-1.28-4.13-3.1-5.43-5.48-1.3-2.37-1.95-5.15-1.95-8.33s.65-5.96,1.95-8.33Z"/><path class="cls-1" d="M294.9,165.89h-21.21c.15,1.9,.76,3.35,1.84,4.36,1.08,1.01,2.4,1.51,3.97,1.51,2.34,0,3.96-.99,4.88-2.96h9.98c-.51,2.01-1.43,3.82-2.77,5.43-1.33,1.61-3.01,2.87-5.02,3.78-2.01,.91-4.26,1.37-6.74,1.37-3,0-5.66-.64-8-1.92-2.34-1.28-4.17-3.1-5.48-5.48-1.32-2.37-1.97-5.15-1.97-8.33s.65-5.96,1.95-8.33c1.3-2.38,3.12-4.2,5.45-5.48s5.02-1.92,8.06-1.92,5.59,.62,7.89,1.86c2.3,1.24,4.1,3.01,5.4,5.32,1.3,2.3,1.95,4.99,1.95,8.06,0,.88-.06,1.79-.16,2.74Zm-9.43-5.21c0-1.61-.55-2.89-1.64-3.84-1.1-.95-2.47-1.43-4.11-1.43s-2.9,.46-3.97,1.37c-1.08,.91-1.75,2.21-2,3.89h11.73Z"/></g></g></g></svg>